<svg xmlns="http://www.w3.org/2000/svg" viewBox="0 0 1000 1000" fill="none">
  <!-- Background gradient -->
  <rect width="1000" height="1000" fill="url(#cosmic-gradient)"/>
  
  <!-- Small stars -->
  <g fill="white">
    <circle cx="50" cy="50" r="1"/>
    <circle cx="150" cy="80" r="1"/>
    <circle cx="250" cy="30" r="1"/>
    <circle cx="350" cy="90" r="1"/>
    <circle cx="450" cy="40" r="1"/>
    <circle cx="550" cy="70" r="1"/>
    <circle cx="650" cy="20" r="1"/>
    <circle cx="750" cy="60" r="1"/>
    <circle cx="850" cy="30" r="1"/>
    <circle cx="950" cy="80" r="1"/>
    <circle cx="100" cy="150" r="1"/>
    <circle cx="200" cy="120" r="1"/>
    <circle cx="300" cy="180" r="1"/>
    <circle cx="400" cy="130" r="1"/>
    <circle cx="500" cy="170" r="1"/>
    <circle cx="600" cy="140" r="1"/>
    <circle cx="700" cy="190" r="1"/>
    <circle cx="800" cy="110" r="1"/>
    <circle cx="900" cy="160" r="1"/>
    <circle cx="75" cy="250" r="1"/>
    <circle cx="175" cy="220" r="1"/>
    <circle cx="275" cy="270" r="1"/>
    <circle cx="375" cy="230" r="1"/>
    <circle cx="475" cy="280" r="1"/>
    <circle cx="575" cy="210" r="1"/>
    <circle cx="675" cy="260" r="1"/>
    <circle cx="775" cy="240" r="1"/>
    <circle cx="875" cy="290" r="1"/>
    <circle cx="975" cy="220" r="1"/>
    <!-- More stars throughout -->
    <circle cx="125" cy="350" r="1"/>
    <circle cx="225" cy="320" r="1"/>
    <circle cx="325" cy="380" r="1"/>
    <circle cx="425" cy="330" r="1"/>
    <circle cx="525" cy="370" r="1"/>
    <circle cx="625" cy="340" r="1"/>
    <circle cx="725" cy="390" r="1"/>
    <circle cx="825" cy="310" r="1"/>
    <circle cx="925" cy="360" r="1"/>
    <!-- Continue pattern for more stars -->
    <circle cx="50" cy="450" r="1"/>
    <circle cx="150" cy="480" r="1"/>
    <circle cx="250" cy="430" r="1"/>
    <circle cx="350" cy="490" r="1"/>
    <circle cx="450" cy="440" r="1"/>
    <circle cx="550" cy="470" r="1"/>
    <circle cx="650" cy="420" r="1"/>
    <circle cx="750" cy="460" r="1"/>
    <circle cx="850" cy="430" r="1"/>
    <circle cx="950" cy="480" r="1"/>
    <!-- And so on... -->
  </g>
  
  <!-- Medium stars (with glow) -->
  <g>
    <circle cx="200" cy="200" r="2" fill="white"/>
    <circle cx="200" cy="200" r="4" fill="white" fill-opacity="0.3"/>
    
    <circle cx="500" cy="100" r="2" fill="white"/>
    <circle cx="500" cy="100" r="4" fill="white" fill-opacity="0.3"/>
    
    <circle cx="800" cy="300" r="2" fill="white"/>
    <circle cx="800" cy="300" r="4" fill="white" fill-opacity="0.3"/>
    
    <circle cx="300" cy="500" r="2" fill="white"/>
    <circle cx="300" cy="500" r="4" fill="white" fill-opacity="0.3"/>
    
    <circle cx="700" cy="600" r="2" fill="white"/>
    <circle cx="700" cy="600" r="4" fill="white" fill-opacity="0.3"/>
    
    <circle cx="100" cy="700" r="2" fill="white"/>
    <circle cx="100" cy="700" r="4" fill="white" fill-opacity="0.3"/>
    
    <circle cx="900" cy="800" r="2" fill="white"/>
    <circle cx="900" cy="800" r="4" fill="white" fill-opacity="0.3"/>
    
    <circle cx="400" cy="900" r="2" fill="white"/>
    <circle cx="400" cy="900" r="4" fill="white" fill-opacity="0.3"/>
  </g>
  
  <!-- Large stars (with rays) -->
  <g fill="#FFD700">
    <path d="M600 400L605 415L620 415L608 425L613 440L600 430L587 440L592 425L580 415L595 415L600 400Z"/>
    <path d="M200 600L205 615L220 615L208 625L213 640L200 630L187 640L192 625L180 615L195 615L200 600Z"/>
    <path d="M800 700L805 715L820 715L808 725L813 740L800 730L787 740L792 725L780 715L795 715L800 700Z"/>
  </g>
  
  <!-- Nebula effects -->
  <g opacity="0.15">
    <ellipse cx="300" cy="300" rx="100" ry="70" fill="#9370DB" transform="rotate(30 300 300)"/>
    <ellipse cx="700" cy="200" rx="120" ry="60" fill="#4B0082" transform="rotate(-20 700 200)"/>
    <ellipse cx="500" cy="600" rx="150" ry="100" fill="#800080" transform="rotate(15 500 600)"/>
    <ellipse cx="800" cy="500" rx="80" ry="120" fill="#9932CC" transform="rotate(-45 800 500)"/>
  </g>
  
  <!-- Gradient definition -->
  <defs>
    <linearGradient id="cosmic-gradient" x1="0" y1="0" x2="1000" y2="1000" gradientUnits="userSpaceOnUse">
      <stop offset="0%" stop-color="#0B0B2A"/>
      <stop offset="50%" stop-color="#191970"/>
      <stop offset="100%" stop-color="#4B0082"/>
    </linearGradient>
  </defs>
</svg>