<svg xmlns="http://www.w3.org/2000/svg" viewBox="0 0 200 200" fill="none">
  <!-- Outer circle -->
  <circle cx="100" cy="100" r="90" stroke="#FFD700" stroke-width="2" stroke-opacity="0.6"/>
  
  <!-- Inner circle -->
  <circle cx="100" cy="100" r="70" stroke="#FFD700" stroke-width="1" stroke-opacity="0.4"/>
  
  <!-- Zodiac divisions -->
  <line x1="100" y1="10" x2="100" y2="30" stroke="#FFD700" stroke-opacity="0.5"/>
  <line x1="145" y1="20" x2="135" y2="35" stroke="#FFD700" stroke-opacity="0.5"/>
  <line x1="180" y1="55" x2="165" y2="65" stroke="#FFD700" stroke-opacity="0.5"/>
  <line x1="190" y1="100" x2="170" y2="100" stroke="#FFD700" stroke-opacity="0.5"/>
  <line x1="180" y1="145" x2="165" y2="135" stroke="#FFD700" stroke-opacity="0.5"/>
  <line x1="145" y1="180" x2="135" y2="165" stroke="#FFD700" stroke-opacity="0.5"/>
  <line x1="100" y1="190" x2="100" y2="170" stroke="#FFD700" stroke-opacity="0.5"/>
  <line x1="55" y1="180" x2="65" y2="165" stroke="#FFD700" stroke-opacity="0.5"/>
  <line x1="20" y1="145" x2="35" y2="135" stroke="#FFD700" stroke-opacity="0.5"/>
  <line x1="10" y1="100" x2="30" y2="100" stroke="#FFD700" stroke-opacity="0.5"/>
  <line x1="20" y1="55" x2="35" y2="65" stroke="#FFD700" stroke-opacity="0.5"/>
  <line x1="55" y1="20" x2="65" y2="35" stroke="#FFD700" stroke-opacity="0.5"/>
  
  <!-- Zodiac symbols (simplified) -->
  <text x="97" y="20" fill="#FFD700" font-size="10">♈</text>
  <text x="150" y="30" fill="#FFD700" font-size="10">♉</text>
  <text x="175" y="75" fill="#FFD700" font-size="10">♊</text>
  <text x="175" y="105" fill="#FFD700" font-size="10">♋</text>
  <text x="160" y="150" fill="#FFD700" font-size="10">♌</text>
  <text x="125" y="180" fill="#FFD700" font-size="10">♍</text>
  <text x="97" y="185" fill="#FFD700" font-size="10">♎</text>
  <text x="65" y="175" fill="#FFD700" font-size="10">♏</text>
  <text x="30" y="150" fill="#FFD700" font-size="10">♐</text>
  <text x="20" y="105" fill="#FFD700" font-size="10">♑</text>
  <text x="30" y="60" fill="#FFD700" font-size="10">♒</text>
  <text x="60" y="30" fill="#FFD700" font-size="10">♓</text>
  
  <!-- Center decoration -->
  <circle cx="100" cy="100" r="5" fill="#FFD700"/>
  <path d="M100 95L102 100L100 105L98 100L100 95Z" fill="#FFD700" transform="rotate(0 100 100)"/>
  <path d="M100 95L102 100L100 105L98 100L100 95Z" fill="#FFD700" transform="rotate(72 100 100)"/>
  <path d="M100 95L102 100L100 105L98 100L100 95Z" fill="#FFD700" transform="rotate(144 100 100)"/>
  <path d="M100 95L102 100L100 105L98 100L100 95Z" fill="#FFD700" transform="rotate(216 100 100)"/>
  <path d="M100 95L102 100L100 105L98 100L100 95Z" fill="#FFD700" transform="rotate(288 100 100)"/>
</svg>